<?xml version="1.0" encoding="UTF-8"?>
<svg xmlns="http://www.w3.org/2000/svg" xmlns:xlink="http://www.w3.org/1999/xlink" viewBox="0 0 30 30" width="30px" height="30px">
<g id="surface1707786">
<path style=" stroke:none;fill-rule:nonzero;fill:rgb(54.901963%,54.901963%,55.686277%);fill-opacity:1;" d="M 7.414062 3 L 9.191406 9.410156 L 9.191406 12.488281 L 10.726562 12.488281 L 10.726562 9.410156 L 12.527344 3 L 10.976562 3 L 10.332031 5.917969 C 10.152344 6.769531 10.035156 7.375 9.984375 7.738281 L 9.9375 7.738281 C 9.859375 7.230469 9.742188 6.621094 9.585938 5.90625 L 8.964844 3 Z M 14.316406 5.421875 C 13.796875 5.421875 13.375 5.523438 13.054688 5.730469 C 12.734375 5.9375 12.5 6.269531 12.347656 6.71875 C 12.199219 7.171875 12.121094 7.773438 12.121094 8.515625 L 12.121094 9.523438 C 12.121094 10.261719 12.191406 10.855469 12.320312 11.300781 C 12.453125 11.742188 12.675781 12.070312 12.988281 12.285156 C 13.300781 12.496094 13.734375 12.601562 14.28125 12.601562 C 14.816406 12.601562 15.246094 12.496094 15.554688 12.289062 C 15.867188 12.082031 16.09375 11.753906 16.234375 11.308594 C 16.375 10.859375 16.441406 10.265625 16.441406 9.527344 L 16.441406 8.519531 C 16.441406 7.773438 16.371094 7.175781 16.226562 6.726562 C 16.085938 6.277344 15.859375 5.949219 15.550781 5.738281 C 15.242188 5.523438 14.832031 5.421875 14.316406 5.421875 Z M 17.253906 5.554688 L 17.253906 10.734375 C 17.253906 11.375 17.363281 11.847656 17.582031 12.148438 C 17.800781 12.449219 18.136719 12.597656 18.597656 12.597656 C 19.261719 12.597656 19.757812 12.28125 20.089844 11.636719 L 20.121094 11.636719 L 20.261719 12.484375 L 21.480469 12.484375 L 21.480469 5.554688 L 19.921875 5.554688 L 19.921875 11.058594 C 19.863281 11.191406 19.769531 11.296875 19.644531 11.378906 C 19.519531 11.464844 19.390625 11.503906 19.253906 11.503906 C 19.09375 11.503906 18.980469 11.4375 18.914062 11.304688 C 18.847656 11.171875 18.8125 10.953125 18.8125 10.644531 L 18.8125 5.554688 Z M 14.28125 6.492188 C 14.5 6.492188 14.65625 6.609375 14.742188 6.839844 C 14.828125 7.070312 14.871094 7.433594 14.871094 7.929688 L 14.871094 10.089844 C 14.871094 10.601562 14.828125 10.972656 14.742188 11.199219 C 14.65625 11.421875 14.503906 11.535156 14.285156 11.535156 C 14.066406 11.535156 13.914062 11.421875 13.832031 11.199219 C 13.746094 10.972656 13.707031 10.601562 13.707031 10.089844 L 13.707031 7.929688 C 13.707031 7.433594 13.75 7.070312 13.835938 6.839844 C 13.925781 6.609375 14.070312 6.492188 14.28125 6.492188 Z M 6.5 13.902344 C 5.117188 13.902344 4 15.019531 4 16.402344 L 4 24.402344 C 4 25.78125 5.117188 26.902344 6.5 26.902344 L 23.5 26.902344 C 24.882812 26.902344 26 25.78125 26 24.402344 L 26 16.402344 C 26 15.019531 24.882812 13.902344 23.5 13.902344 Z M 15.058594 16.199219 L 16.328125 16.199219 L 16.328125 19.28125 L 16.335938 19.28125 C 16.453125 19.058594 16.613281 18.882812 16.824219 18.746094 C 17.035156 18.605469 17.261719 18.539062 17.503906 18.539062 C 17.816406 18.539062 18.058594 18.621094 18.234375 18.785156 C 18.414062 18.953125 18.542969 19.222656 18.621094 19.589844 C 18.703125 19.960938 18.742188 20.472656 18.742188 21.128906 L 18.742188 22.050781 C 18.742188 22.921875 18.636719 23.5625 18.425781 23.976562 C 18.21875 24.386719 17.886719 24.59375 17.441406 24.59375 C 17.195312 24.59375 16.96875 24.535156 16.765625 24.417969 C 16.5625 24.304688 16.410156 24.148438 16.308594 23.949219 L 16.28125 23.949219 L 16.148438 24.503906 L 15.058594 24.503906 Z M 7.183594 16.496094 L 11.089844 16.496094 L 11.089844 17.558594 L 9.78125 17.558594 L 9.78125 24.503906 L 8.492188 24.503906 L 8.492188 17.558594 L 7.183594 17.558594 Z M 21.117188 18.542969 C 21.566406 18.542969 21.917969 18.625 22.160156 18.789062 C 22.398438 18.953125 22.570312 19.214844 22.671875 19.5625 C 22.769531 19.914062 22.816406 20.398438 22.816406 21.011719 L 22.816406 22.015625 L 20.613281 22.015625 L 20.613281 22.3125 C 20.613281 22.691406 20.625 22.972656 20.648438 23.15625 C 20.667969 23.34375 20.714844 23.484375 20.785156 23.566406 C 20.855469 23.65625 20.964844 23.695312 21.109375 23.695312 C 21.304688 23.695312 21.441406 23.621094 21.515625 23.46875 C 21.589844 23.316406 21.628906 23.0625 21.636719 22.703125 L 22.769531 22.769531 C 22.777344 22.820312 22.78125 22.894531 22.78125 22.980469 C 22.78125 23.523438 22.632812 23.925781 22.335938 24.191406 C 22.039062 24.460938 21.621094 24.59375 21.082031 24.59375 C 20.429688 24.59375 19.976562 24.390625 19.714844 23.984375 C 19.453125 23.578125 19.324219 22.945312 19.324219 22.09375 L 19.324219 21.070312 C 19.324219 20.195312 19.460938 19.554688 19.730469 19.148438 C 20 18.742188 20.460938 18.542969 21.117188 18.542969 Z M 12.949219 18.652344 L 14.265625 18.652344 L 14.265625 24.503906 L 13.234375 24.503906 L 13.121094 23.789062 L 13.089844 23.789062 C 12.808594 24.328125 12.390625 24.597656 11.828125 24.597656 C 11.441406 24.597656 11.15625 24.472656 10.972656 24.21875 C 10.785156 23.964844 10.691406 23.566406 10.691406 23.027344 L 10.691406 18.652344 L 12.011719 18.652344 L 12.011719 22.949219 C 12.011719 23.210938 12.042969 23.398438 12.097656 23.507812 C 12.15625 23.621094 12.25 23.675781 12.386719 23.675781 C 12.5 23.675781 12.609375 23.640625 12.714844 23.570312 C 12.820312 23.5 12.898438 23.410156 12.949219 23.300781 Z M 21.089844 19.433594 C 20.949219 19.433594 20.84375 19.472656 20.777344 19.554688 C 20.710938 19.636719 20.664062 19.773438 20.644531 19.960938 C 20.621094 20.148438 20.613281 20.433594 20.613281 20.816406 L 20.613281 21.234375 L 21.574219 21.234375 L 21.574219 20.816406 C 21.574219 20.4375 21.5625 20.15625 21.539062 19.960938 C 21.511719 19.765625 21.46875 19.628906 21.402344 19.550781 C 21.332031 19.472656 21.230469 19.433594 21.089844 19.433594 Z M 16.910156 19.472656 C 16.78125 19.472656 16.664062 19.523438 16.558594 19.625 C 16.449219 19.730469 16.371094 19.859375 16.328125 20.015625 L 16.328125 23.339844 C 16.386719 23.441406 16.460938 23.515625 16.550781 23.566406 C 16.644531 23.617188 16.746094 23.644531 16.851562 23.644531 C 16.992188 23.644531 17.105469 23.597656 17.1875 23.496094 C 17.269531 23.390625 17.328125 23.21875 17.363281 22.980469 C 17.398438 22.738281 17.414062 22.402344 17.414062 21.976562 L 17.414062 21.222656 C 17.414062 20.765625 17.402344 20.410156 17.371094 20.160156 C 17.34375 19.914062 17.292969 19.738281 17.21875 19.632812 C 17.148438 19.527344 17.046875 19.472656 16.910156 19.472656 Z M 16.910156 19.472656 "/>
</g>
</svg>
